<?xml version="1.0" standalone="no"?>
<svg width="800" height="800" xmlns="http://www.w3.org/2000/svg" id="stage-svg" xmlns:xlink="http://www.w3.org/1999/xlink" preserveAspectRatio="none" viewBox="0 0 385 385"><g transform=""><g transform=""><defs><path fill="#FFEDD9" d="M191.5 95.8q0-39.7-28.05-67.75-16.2-16.2-36.3-23.05-14.7-5-31.4-5t-31.4 5q-20.1 6.85-36.3 23.05Q0 56.1 0 95.8q0 32.25 18.5 56.85l.05.05q.6.75 1.2 1.55l1 1.2L28 163.5q0 .05.05.05l.7.7q3.5 3.4 7.15 6.4v.05l-.05-.05q-5.81 7.718-10.6 17.75-.078.183-.2.35l-.3.7q-.06.17-.15.35-.117.253-.25.5l-2.6 6.15q-5.345 13.608-8.3 30.1-.05.2-.05.4-.15 2.45.15 4.85Q15.7 245.9 31 249.35q.2.05.45.1l.05-.05q.15.05.25.05.2.6.4 1.15.4.95 1.1 1.75 0 .05.05.1v19.45q-3.9.7-7.8 2.5-.6.267-1.2.55-.94.67 0 .8h143.25q1 0 0-.6-.775-.405-1.55-.75-3.9-1.8-7.8-2.5v-19.45q.05-.05.05-.1.7-.8 1.1-1.75.2-.55.4-1.15.1 0 .25-.05l.05.05q.25-.05.45-.1 15.3-3.45 17.45-17.55.3-2.4.15-4.85 0-.2-.05-.4-3.7-20.65-11.15-36.75-4.8-10.45-11.15-18.95h-.05q0-.1-.1-.2 3.65-3 7.15-6.4l.7-.7q.05 0 .05-.05l7.25-8.05 1-1.2q.6-.8 1.2-1.55l.05-.05q18.5-24.6 18.5-56.85z" id="SkiSki001__Symbol_10_0_Layer0_0_FILL"/><path fill="#F5D8B8" d="M-36.05 227.75h-.2l-3.9.15-1.3.1q-8.5.6-13.15 1.65-4.7 1-5.35 1.3-.15.05-.25.1 8-1.3 16.1-1.8.3-.05.65-.05l2-.1q.2-.05.35-.05h.3q15.4-.65 30.05 2l4.15.7q1.15.2 2.3.45 1.75.35 3.45.75l.3.1q.1 0 .2.05.15 0 .3.05-.4-.15-.8-.25-1.7-.6-3.45-1.05-.55-.15-1.05-.3-.15-.05-.25-.05-10.8-3-22-3.6-.4-.05-.8-.05-.55-.05-1.15-.05l-6.5-.05m3.4-52.2q3.05 1.2 6.25 0 1.6-1.65.35-3.6-.1-.15-.15-.25-3.05-1-6.9 0-.5.7-.6 1.4-.2 1.1.8 2.25.1.1.25.2M3.2 203.7q-1.25-1.15-2.25 0-.05.25 0 .55.25 1.6.15 3.25l.1.05q.7.3 1.05-.35l.1-.2q.15-.45.3-.85.25-.8.4-1.55.05-.15.05-.3l.1-.6m55.4 25.95q-4.65-1.05-13.15-1.65l-1.3-.1-3.9-.15h-.2l-6.5.05q-.6 0-1.15.05-.4 0-.8.05-11.2.6-22 3.6-.1 0-.25.05-.5.15-1.05.3-1.75.45-3.45 1.05-.4.1-.8.25.15-.05.3-.05.1-.05.2-.05l.3-.1q1.7-.4 3.45-.75 1.15-.25 2.3-.45l4.15-.7q14.65-2.65 30.05-2h.3q.15 0 .35.05l2 .1q.35 0 .65.05 8.1.5 16.1 1.8-.1-.05-.25-.1-.65-.3-5.35-1.3M29.55 173.1q-.2 1.1.8 2.25.1.1.25.2 3.05 1.2 6.25 0 1.6-1.65.35-3.6-.1-.15-.15-.25-3.05-1-6.9 0-.5.7-.6 1.4z" id="SkiSki001__hll_0_Layer0_0_FILL"/><path fill="#D4B18A" d="M-54 165.45q-.05.05-.05.1l-4.3 21.85q-.45 2.1-.85 4.05l-.1.6q-.2.8-.35 1.6-1.5 7.35-2.3 12.15-.75 4.4.45-.6.4-2.5 1.45-6.25.1-.6.25-1.25.7-3.15 1.3-5.65.65-3.05 1.15-5.1h.05l-.05-.05v-.05q.2-.9.35-1.55.2-.95.4-1.55v-.05q0-.15.05-.25.15-.75.2-.85l3.25-16.8.05-.05q0-.25-.1-.4-.1-.2-.3-.2-.2-.05-.3 0-.05 0-.05.05-.05 0-.1.05t-.1.2m81.8 53.1q5.828-.808 11.3-1.95-.15 0-.3.05-.95.05-1.9.15-.75.05-1.5.15-13.1 1.2-26.3 1.45-4.5.1-9 .1-17-.1-34.1-1.8-.65-.1-1.2-.15 5.808 1.176 11.85 2 11.28 1.525 23.45 1.85h.55v.1l1.4 12.2v-.4l.05.4 1.4-12.2v-.1h.05q.15 0 .35.05l5.2-.2q9.762-.455 18.7-1.7m30.1-53.2l-.05-.05q-.15-.05-.35 0-.2 0-.3.2-.1.15-.05.4l3.25 16.85q.1.2 1.05 4.3v.05q.45 2 1.1 4.95.55 2.4 1.2 5.4l.1.4q.25 1.2.5 2.25 1 3.35 1.35 5.75 1.05 4.3.3.1-.9-5.3-2.65-13.9-.4-2.15-.9-4.5L58.1 165.7v-.1q-.1-.2-.2-.25m2.25-34.1q-1.35 1.05-2.8 2.1l-1.55 1.15q-20.35 14.1-45.8 16l-1.1.05q-3.35.2-6.8.2h-.2q-3.45 0-6.8-.2l-1.1-.05q-25.45-1.9-45.8-16l-1.55-1.15q-1.45-1.05-2.8-2.1l-1.15-.9q10.019 8.81 21.45 14.1 17.928 7.84 37.75 7.85h.2q19.823-.01 37.75-7.85 11.45-5.3 21.45-14.05l-1.15.85z" id="SkiSki001__hdd_0_Layer0_0_FILL"/><filter id="SkiSki001__Filter_1" x="-20%" y="-20%" width="140%" height="140%" color-interpolation-filters="sRGB"><feColorMatrix in="SourceGraphic" values="1 0 0 0 0 0 1 0 0 0 0 0 1 0 0 0 0 0 0.75 0" result="result1"/></filter></defs><use xmlns:xlink="http://www.w3.org/1999/xlink" xlink:href="#SkiSki001__Symbol_10_0_Layer0_0_FILL" transform="translate(96.75 58)" id="SkiSki001__col1n"/><use xmlns:xlink="http://www.w3.org/1999/xlink" xlink:href="#SkiSki001__hll_0_Layer0_0_FILL" transform="matrix(1.00052 0 0 1 190.5 98.75)" id="SkiSki001__col1d"/><use filter="url(#SkiSki001__Filter_1)" xmlns:xlink="http://www.w3.org/1999/xlink" xlink:href="#SkiSki001__hdd_0_Layer0_0_FILL" transform="matrix(1.00052 0 0 1 190.5 98.75)" id="SkiSki001__col1s"/></g></g><g transform=""><g transform=""><defs><path fill="#A39700" fill-opacity="0.2" d="M178.3 45.35q9.25-14.55 12.15-34.2.5-3.5.85-7.1.15-2 .25-4.05h-.8q-.45 1.75-5 10.6-1 1.75-2.4 4.15-5.2 8.95-9.05 9.7-.15.1-.3.25-11.25 26.4-42.65 30.55l-6.15-14q-31-5.95-62 0l-7.25 13.9q-31.2-8.6-40.35-29.5-1.1-.65-2.45-1.9H13q-.1-.15-.15-.3-.85-.75-1.75-1.7-2.7-2.95-3.5-5.1-3.25-7.1-6.05-12.2Q-.55.55.45 0H0q.05 6.75.95 13.7.4 3.1.95 6.25l.1.3q1.5 5.35 3.7 10.6.3.7.65 1.45l1.75 4.05q.45.95.95 1.9v-.05q.1.25.25.5 1.15 2.3 2.4 4.55 1.15 2.05 2.45 4 1.35 2.15 7.1 9.4 5.7 7.25 14.55 14.65l1.75 1.3q1.35 1.05 2.8 2.1l8.2 5.35q17.8 10.2 39.2 11.8l1.1.05q3.35.2 6.8.2h.2q3.45 0 6.8-.2l1.1-.05q25.45-1.9 45.85-16l1.55-1.15q1.45-1.05 2.8-2.1l1-.7.65-.65q13.75-11.35 22.7-25.9m-71.95 30.5Q94.8 69.35 84 76.1q-2.899 3.237-8.9 1.65-9.9-5.65-12-14.2.15-10.25 6-14.55 25.05-5.95 50.45.5 4.05 4.9 5.75 16.4-.05 6.35-8.4 11.85-7.7 1.7-10.55-1.9m-71.7-22.3l-.1-.1q0-.05.05-.05.05.05.05.15z" id="BeaStu003__Symbol_4_0_Layer0_0_FILL"/><path fill="#776E00" fill-opacity="0.251" d="M178.4 44.1q9.25-14.55 12.15-34.2l-.05.05q-4.8 26.55-26.8 46.65-28.1 25.75-67.85 25.75-39.75 0-67.9-25.75Q1.95 32.8 0 0q.15 9.05 1.9 18.45l.1.3.5 1.7 1.45 4.3Q4.8 27.2 5.8 29.6q.3.7.65 1.45L8.2 35.1q.45.95.95 1.9v-.05q.1.25.25.5 1.15 2.3 2.4 4.55 1.15 2.05 2.45 4 1.35 2.15 7.1 9.4 5.7 7.25 14.55 14.65l1.75 1.3q1.35 1.05 2.8 2.1l8.2 5.35q17.8 10.2 39.2 11.8l1.1.05q3.35.2 6.8.2h.2q3.45 0 6.8-.2l1.1-.05q25.45-1.9 45.85-16l1.55-1.15q1.45-1.05 2.8-2.1l1-.7.65-.65q13.75-11.35 22.7-25.9z" id="BeaStu003__Symbol_8_0_Layer0_0_FILL"/></defs><use xmlns:xlink="http://www.w3.org/1999/xlink" xlink:href="#BeaStu003__Symbol_4_0_Layer0_0_FILL" transform="translate(96.75 157.4)" id="BeaStu003__col1n"/><use xmlns:xlink="http://www.w3.org/1999/xlink" xlink:href="#BeaStu003__Symbol_8_0_Layer0_0_FILL" transform="translate(96.65 158.65)" id="BeaStu003__col1d"/></g></g><g transform=""><g transform=""><defs><path fill="#C1D2E2" d="M125.7 0q-.2.05-.35.1Q62.1 12.35.85.2.6.1.35.1.2.05.1.05.05 0 0 0q0 .05.05.1v19.5q.35-.1.7-.15h.1q32.4-5.15 62 2.9 29.7-8.1 62.3-2.85.15 0 .3.05.15 0 .25.05V.05l.05-.05h-.05z" id="LegPan001__Symbol_1_0_Layer0_0_FILL"/></defs><use xmlns:xlink="http://www.w3.org/1999/xlink" xlink:href="#LegPan001__Symbol_1_0_Layer0_0_FILL" transform="translate(129.65 310.25)" id="LegPan001__col1n"/></g></g><g transform=""><g transform=""><defs><path fill="#000000" d="M146.9 7.7q-9-5.25-23.3-6.95-13.1-1.45-27.4 0-7 .8-14.2 2.45l-8.3 2.05-8.3-2.05Q58.2 1.55 51.2.75 36.9-.7 23.8.75 9.1 2.5 0 8h147.4l-.5-.3z" id="LegSho001__Symbol_2_0_Layer0_0_FILL"/></defs><use xmlns:xlink="http://www.w3.org/1999/xlink" xlink:href="#LegSho001__Symbol_2_0_Layer0_0_FILL" transform="translate(118.8 326)" id="LegSho001__col1n"/></g></g><g transform=""><g transform=""><defs><path fill="#D9D9D9" d="M146.6 9.5q-2-3.1-4.2-6-.25-.35-.5-.65 0-.05-.05-.1l-.6-1.2q-.35-.55-.7-1.2l-.2.2-1.85 1.4q-1.35 1.05-2.8 2.1l-1.55 1.15q-13.55 9.35-29.25 13.35-1.15.7-2.25 1.45-.6.4-1.2.85-3.8 2.65-7.15 5.55-2 1.7-3.85 3.45-5.4 5.2-9.55 11-.25-1-1.7-1h-.55l-.5.2-.5.35q-.15.2-.2.4-3.6-4.9-7.95-9.35-.55-.6-1.15-1.15.047 0 .1.05l-.6-.6L57.6 21.1q-.15-.1-.35-.25-2.25-1.6-4.6-3.15-14-4.1-26.2-12.5L24.9 4.05Q23.45 3 22.1 1.95L20.25.55q-.1.05-.15.15l-.7-.7q-.05.05-.1.05t-.15.05q-.2.3-.25.6l-.05.05-.4.6-.15.25q-.05.05-.05.1-.25.25-.4.55l-.05.05q-.25.35-.45.75-.25.3-.45.7-.7 1.05-1.4 2.2-1.6 2.6-3.1 5.3-.55.6-1.25 1.35-1.3.8-2.65 2.05-1.35 1.3-1.8 2.15v.3q-.05.15-.05.35 0 .35.1.6l.05 1.1v.4q-.05.4-.2.7l-.1.25-.1.15q-.3.35-.75.65-1.4.95-2.3 2.45-.75 1.15-.75 1.95v.05q0 .6.15 1.2.1.55.4 1.1.55 1.05.55 1.2l-.05.15q-.3.35-1.5 1.7-.15.2-.3.35Q.55 33 .55 34.5q.05.15.05.3l.2.6q.05.2.15.4.25.7.75.95v.1q.1-.05.2-.05L0 44q2.5-.65 5.05-.75h.5q2.55-.1 5.1.35 2.6.4 5.25 1.35.55.2 1.1.45 1.65.65 3.3 1.5l2.1 1.15-2.65 9.9h.05V58h-.05l-2.9 11.75q-.7 2.75-1.35 5.5-.2.55-.3 1.15-.2.55-.3 1.15l-.95 3.6v.25l-.05.05h.2q.25.1.5.15H14.75q2.05.5 4.15.95 3.75.85 7.55 1.6 25.9 5.15 51.65 5.4h2.6q30.55-.05 60.9-7 1-.25 2-.45l.95-.2q.25-.1.55-.15.3-.05.65-.15H145.9v-.1l.75-.2-.05-.05v-.1h-.05l-5.15-20.7h-.05l-.5-2.35-.1-.1-2.25-10.25 2-1q.1-.1.25-.15 1.6-.95 3.25-1.65 2.65-1.15 5.35-1.65 3.3-.65 6.75-.4 2.05.2 4.15.7l-1.5-6.85v-.05q.55-.3 1-1.1.3-.5.6-1.25.1-.3.2-.55.2-.2.2-.6v-.1q.15-.6.25-1.05v-.4q0-1-.85-1.9-1.05-1.2-3-1.4h-.1l.3-2.8q0-.55-.05-1-.3-2-1.8-3.15-1.1-.85-1.55-1.65-.35-.55-.35-1.05v-.2l.05-.65q.05-.7.25-1.55.05-1.2-.9-2.25l-.1-.1q-.9-.95-3.9-2.7-1.15-.7-1.85-1.05l-.2-.1q-.2-.3-.35-.6z" id="ShiLon022__Symbol_296_0_Layer0_0_FILL"/><path fill="#BFBFBF" d="M80.1 86.2v-4.05h-2.6v4.05h2.6m0-20.25h-2.6V70h2.6v-4.05m0 8.1h-2.6v4.05h2.6v-4.05M77.5 53.8h2.6v-4.05h-2.6v4.05M19.6 29.75q-.2.25-.2 1 0 1.05 1.85 3.15 1.85 2.05 1.85 4 0 .95-.25 1.45l-.65-.25-.05.1q-.15-.15-.35-.3-.8-.6-2.35-1.3-1.9-.9-4.8-2.15-2.95-1.3-4.25-1.9-.45-.45-2.5-1.2t-3.05-.75q-1.05 0-2.9.35-1.9.35-1.9 2.1v.15q0 .05-.05.05l.2.6q.05.2.15.4.25.7.75.95v.1q.1-.05.2-.05.15.05.35.05.45 0 .75-.15 6.5-.55 12.35.95.95.2 1.85.5 2.65.8 6.3 2.85l-.15.85q.05.05.15.1l-.35.9-1.05 5.1h.45Q19.1 57.85 18.6 59.8q-.5 1.9-.45 1.9l-.1.45q.6-.5 1.15-1 4.25-3.95 7.45-9 2.8-4.2 2-9.65.35-1.4 1.5-4.55 1.05-2.75 1.45-4.85.2-.6.2-1.2v-.45-.55-.1q0-1.55-1-3.2-1.3-2.1-3.4-2.1-1.95.05-2 5.4v.35q0 1.15.05 2.05l-.8.7q-1.35.4-1-3.1v-.1q-.65-1.95-2.95-1.95h-.05q-.8.55-1.05.9m4.4 8h.05l-.05.05v-.05M6.75 23.35H6.05q-1.3 0-3.5 1.1-.3.25-.5.55-.05.05-.05.15v.05q0 .6.15 1.2.1.55.4 1.1.55 1.05.55 1.2l-.05.15q.2-.2.55-.45.25-.2.55-.35Q5 27.6 6 27.6q1.85 0 4.8 1.95l2.6 1.95q.55 0 .55-.55v-.05q-.05-1.6-2.4-4.55-2.6-3.3-4.65-2.85-.15-.05-.15-.15m-.55-7h-.1v.2q-.05.15-.05.35 0 .35.1.6l.05 1.1v.4q-.05.4-.2.7l-.1.25-.1.15q-.15.25-.4.45.2-.15.6-.35.7-.4 1.65-.45.25-.05.6-.05 2.6 0 5.05 1.75 2 1.7 2.35 1.7.45 0 .5-.45l.1-.6q0-2.25-1.95-4.85-.35-.45-.6-.8-1.75-1-4-1.05h-.25q-2.7 0-3.25.95M55.5 30.9q.9.45 1.85.9 3.2 1.6 6.8 3.3 1.7.8 3.55 1.6 2.25 1.05 9.1 4.9-.9-.75-1.8-1.4h.05q-.3-.2-.55-.4l-7.6-5.35q-.7-.5-1.45-.95-.25-.15-.55-.3-1.95-1.2-3.85-2.3-14.6-8.2-29.1-9.9l-1.7-.2q-8.8-.85-12.1-5.1-.5-.65-.9-1.4-.85-1.55-1.05-3.5l-.05.2q0 5 3.55 7.8 4.55 3.65 16.45 5.3 5.5.95 10.75 2.95 3.35 1.3 8.6 3.85M57 20.55q-.15-.1-.35-.25-2.25-1.6-4.6-3.15-14-4.1-26.2-12.5L24.3 3.5q-1.45-1.05-2.8-2.1L19.65 0q-.1.05-.15.15l-.1-.1-.45 1q-.2.45-.35.95v.05q-.05.55-.05 1.15 0 5.55 7.75 9.3 4.4 2.2 18.3 6.1 6.85 1.7 9.25 2.6l4.1 1.7q1.15.45 1.95 1.15.95.75 1.6 1.1 1.85.95 3.65 2.35.45.35 1.55 1.3.45.4 1.05.95.047 0 .1.05l-.6-.6L57 20.55m45.05 41.55l7.5 19.55q1.25-.1 2.5-.25 1.95-.2 3.95-.4l-9.6-21.45q-3.7.5-9.45 1-6.05.5-15.95.6-.45-.05-.9 0v-3.3h-2.6v3.25q-11.55-.2-18.8-.75-6.1-.5-9.15-1.15l-10.1 21.05q.75.05 1.5.2l4.1.5h.3l7.9-19.05q12.3 1.5 24.25 1.25V61.9h2.6v1.2q.45 0 .9.05 10.9.2 21.05-1.05m36.55-32.4q-.6-.8-1.9-.8-1.6 0-2.7 1.95-.6 1.45-.75 1.9-.5-.3-.6-.85-.15-.6-.15-2.05 0-.4.5-1.85.45-1.45.45-2.05 0-1.1-.85-1.45-.85-.3-1.9.35-2.8 1.8-2.8 7.1 0 1.45.2 2.05.15.45.9 1.7.3 1 .8 1.3.4.7 1 1.5.15.25.95 1.1.65.75.8 1.15.45 1.55.55 4.15-.15.5-.15.8v.4q-.2 1.85.05 3.65.45 3.75 2.75 7.2 1.2 1.75 2.85 3.3l2.8 2.1-4.8-21.3.4-.25v.05q.15-.1.3-.25l3.4-2.25 3.5-1.4.9-.2.05-.05q.8-.2 1.75-.35.05-.05.1-.05l.55-.05q.15-.05.3-.05.15-.05.3-.05 1.4-.2 2.9-.25 1.3-.1 2.7-.05 1.3 0 2.7.1h.1q.95.25 1.5.25h.1v-.05q.55-.3 1-1.1.3-.5.6-1.25.1-.3.2-.55.2-.2.2-.6v-.1q.15-.6.25-1.05-.85-.2-2.05-.2-.85 0-1.8.1-3.05.25-7.5 1.65-4.45 1.35-7.25 3.25-2.85 1.9-3.8 2.8-1 .9-1.2.75-.4.05-.35-1.7.05-.2.1-.45.25-1.35 1.35-3.1t1.1-3.8q0-.6-.4-1.1m-1.4-23.35q1.3-3 1.45-5.5l-.75.55q-1.35 1.05-2.8 2.1l-1.55 1.15Q120 14 104.3 18q-1.15.7-2.25 1.45-.6.4-1.2.85-3.8 2.65-7.15 5.55 1.5-.95 3.3-1.95 3.3-1.75 8.9-3.65 3.15-1.05 9.4-3.15 3.05-1.1 9.95-2.65l.8-.2q1.3-.2 3.75-1.1 2.4-.95 4.2-2.2 1.75-1.3 3.2-4.6m18.6 17.5q-.5 0-1.45.15-.3.05-.5.1-.9.15-1.05.25-4.3.25-6.5 2.55-1.6 1.7-1.6 3.6 0 .3.1.55.2.5.75.55.9-1.8 5.85-3.05 2.45-.65 3.95-.6.5-.05.9.05l.3-.2h-.1l.3-2.8q0-.55-.05-1-.9-.1-.9-.15m-9.1-4.65q.15-.45.75-.9.9-.7 2.2-.7.7 0 1.35.25.8.3 1.5 1 .1 0 .15.05l.7.3q-.35-.55-.35-1.05v-.2l.05-.65q.05-.7.25-1.55.05-1.2-.9-2.25h-.55q-1.55 0-2.75.55-1.05.45-1.8 1.3-1.3 1.4-1.3 2.7 0 .4.1.6.15.4.6.55m-3.05-8.1q0-2.15-.3-3.3.75 3.7-.6 6.4-2.65 5.35-13.55 6.6-3.35.4-6.55 1-15.2 2.8-27.8 9.75-1.75.95-3.4 2-5.9 3.6-11.15 8.2-.05 0-.05.05H80.55q.7 0 3.85-2 3.8-2.45 3.9-2.5.85-.4 3.85-1.95.2-.15.4-.25 2.8-1.5 4.7-2.35 2.9-1.25 8.5-3.1 7.85-2.6 8.95-3 6.55-2.3 19.4-5.95 9.55-3.65 9.55-9.6z" id="ShiLon022__Symbol_265_0_Layer0_0_FILL"/><path fill="#999999" d="M79.05 89.55v-2.8h-2.6v2.8h2.6m0-10.9h-2.6v4.05h2.6v-4.05m0-12.15v-4.05h-2.6v4.05h2.6m0 4.05h-2.6v4.05h2.6v-4.05m-2.6-12.15h2.6v-4.05h-2.6v4.05M12.4 81.45h.05l-.05-.75v.75m1-5.05l-.2.7q.05-.05.15-.05l-.05.05q.35.05.7.15.05 0 .15.05l3.5.7 5.7 1.1 1.5.3q2.25.4 4.5.75 2.95.5 5.9.9.7.1 1.45.25h.25q.05 0 .15.05.15 0 .35.05.3 0 .6.05 2.95.4 5.85.75.05 0 .1.05 3.8.4 7.55.75 3.65.35 7.3.6 3.2.2 6.45.4 1.75.05 3.55.15 3.7.1 7.4.15h.2v-.75h-.15q-3.7-.05-7.35-.15-5-.2-10-.55-3.65-.25-7.3-.55-3.7-.35-7.35-.8H44l-4.1-.5q-.75-.15-1.5-.2l10.1-21.05q-.35-.05-.65-.15L37.8 80.65l-.35-.05-.05.05-.95-.15q-3.5-.5-7-1.05-.05-.05-.15-.05-2.2-.4-4.45-.75-.65-.15-1.35-.25l-5.6-1.1q-1.65-.35-3.35-.65-.55-.15-1.1-.25h-.05m.3-38.75q-5.85-1.5-12.35-.95-.3.15-.75.15-.2 0-.35-.05L0 37.85q11.1-1.35 21.45 3.9l-3.1 15.9v.2q0 .1.1.15v.05q.1.15.3.2.2.05.4-.05.15-.15.2-.35l4.2-21.4v-.05q.05-.2-.05-.35-.15-.2-.35-.25-.2-.05-.35.1-.2.1-.25.3l-.9 4.7q-3.55-1.95-6.1-2.75-.9-.3-1.85-.5m92.5 22.3q-.4.05-.85.15l9.6 21.45q-2 .2-3.95.4-1.25.15-2.5.25l-5.6.5q-4.05.3-8.15.5-1.45.05-2.9.15-2.6.05-5.1.15-3.2.05-6.35.05h-1.35v.75h2.15q2.75 0 5.55-.05 2.65-.1 5.4-.2l2.7-.1q4.05-.2 8.1-.5l5.8-.5q1.1-.15 2.25-.25 2.1-.2 4.25-.45l1.1-.1q2.05-.3 4.05-.55l3.8-.5q3.1-.45 6.15-.95l5.5-1q.8-.15 1.65-.3h.15q2.2-.45 4.45-.9.55-.15 1.1-.25h.05l.75-.1-.2-.85q-.7.2-.75.2V77q-.55.1-1.1.25l-4.5.9-2.9.5q-.8.15-1.55.3-1.45.2-2.85.45-3.1.5-6.15.95-1.9.25-3.7.55-2.15.25-4.25.5l-9.85-21.45m28.55-23.75q-.05-.2-.25-.3-.15-.15-.35-.1l-.2.1q-.1.05-.15.15-.1.15-.05.35v.05l4.2 21.4q.05.2.2.35.2.1.4.05t.3-.2V58q.1-.05.1-.15v-.2L136 42.5l.6-.3q6.75-6 20.55-4.55h.15l-.2-.9h-.1q-.55 0-1.5-.25h-.1q-1.4-.1-2.7-.1-1.4-.05-2.7.05-1.5.05-2.9.25-.15 0-.3.05-.15 0-.3.05l-.55.05q-.05 0-.1.05-.95.15-1.75.35l-.05.05-.9.2-3.5 1.4-3.4 2.25q-.15.15-.3.25v-.05l-.15.1-1.05-5.25m4.85-34.65q-.35-.55-.7-1.2l-.2.2-.55.45q4.95 8.45 2.65 13.3-2.5 4.85-12.75 6.05-21.4 2.6-38 12.8-5.65 3.45-10.75 7.8-.05-.05-.05-.1-.25-1-1.7-1H77l-.5.2-.5.35q-.15.2-.2.4l-.05.05q-5.75-4.55-11.5-8.1-1.1-.65-2.15-1.3-16.45-9.6-32.8-11.1-9.5-.95-12.2-5.95-2.25-4.4.45-11.8v-.05q.15-.5.35-.95l.45-1-.6-.6q-.05.05-.1.05T17.5.1q-.2.3-.25.6l-.05.05Q14.6 7 15.15 11.35q.2 1.95 1.05 3.5.4.75.9 1.4 3.3 4.25 12.1 5.1l1.7.2q14.5 1.7 29.1 9.9 1.9 1.1 3.85 2.3.3.15.55.3.75.45 1.45.95l7.6 5.35q.25.2.55.4h-.05q.9.65 1.8 1.4.2.15.45.35l-2.45 7.65h2.7v.15h2.6v-.15h3.1l-2.85-7.8h-.1q0-.05.05-.05 5.25-4.6 11.15-8.2 1.65-1.05 3.4-2 12.6-6.95 27.8-9.75 3.2-.6 6.55-1 10.9-1.25 13.55-6.6 1.35-2.7.6-6.4-.55-2.55-2.05-5.5 0-.05-.05-.1l-.6-1.2z" id="ShiLon022__Symbol_233_0_Layer0_0_FILL"/><path fill="#FFFFFF" d="M50 2.3q1.1-.75 2.25-1.45-7.55 1.9-15.55 2.6-.5 0-1.05.05l-1.1.05q-3.1.2-6.3.2h-1.2q-3.2 0-6.3-.2l-1.1-.05q-3.9-.3-7.65-.85Q5.85 1.7 0 0q2.35 1.55 4.6 3.15.2.15.35.25l10.25 8.65.6.6q-.053-.05-.1-.05.6.55 1.15 1.15 4.35 4.45 7.95 9.35.05-.2.2-.4l.5-.35.5-.2h.55q1.45 0 1.7 1 4.15-5.8 9.55-11 1.85-1.75 3.85-3.45Q45 5.8 48.8 3.15q.6-.45 1.2-.85z" id="ShiLon022__Symbol_196_0_Layer0_0_FILL"/><path fill-opacity="0.502" d="M247.6 264.45v.05l4.2 21.4q.05.2.2.35.2.1.4.05t.3-.2v-.05q.1-.05.1-.15v-.2l-4.2-21.45q-.05-.2-.25-.3-.15-.15-.35-.1-.107.027-.2.1-.08.057-.15.15-.1.15-.05.35m-110.95-.5q-.2.1-.25.3l-4.2 21.45q-.017.113 0 .2l.05.15q.031.025.05.05.1.15.3.2.2.05.4-.05.15-.15.2-.35l4.2-21.4v-.05q.05-.2-.05-.35-.15-.2-.35-.25-.2-.05-.35.1z" id="ShiLon022__Layer11_0_FILL"/></defs><use xmlns:xlink="http://www.w3.org/1999/xlink" xlink:href="#ShiLon022__Symbol_296_0_Layer0_0_FILL" transform="translate(112.2 228.05)" id="ShiLon022__col1n"/><use xmlns:xlink="http://www.w3.org/1999/xlink" xlink:href="#ShiLon022__Symbol_265_0_Layer0_0_FILL" transform="translate(112.8 228.6)" id="ShiLon022__col1d"/><use xmlns:xlink="http://www.w3.org/1999/xlink" xlink:href="#ShiLon022__Symbol_233_0_Layer0_0_FILL" transform="translate(113.85 228.05)" id="ShiLon022__col1s"/><use xmlns:xlink="http://www.w3.org/1999/xlink" xlink:href="#ShiLon022__Symbol_196_0_Layer0_0_FILL" transform="translate(164.85 245.75)" id="ShiLon022__col2n"/><use xmlns:xlink="http://www.w3.org/1999/xlink" xlink:href="#ShiLon022__Layer11_0_FILL"/></g></g><g transform=""><g transform=""><defs><path fill="#FFEDD9" d="M34.65 11q0-3.2-2.25-5.45-1.65-1.65-3.8-2.1-.3-.05-.55-.1-.25-.05-.5-.05-.15-.05-.35 0-.15-.05-.35 0h-.4q-.7.05-1.25.15-.15.05-.35.1Q20.7-.05 15.1 0 9.35-.05 5.2 3.65q-.05.05-.1.15-.2.1-.35.25-.05 0-.05.05l-.05.05-.2.2q-.25.25-.45.5-.05 0-.05.05l-.05.05-.3.3Q0 9.4 0 15q0 6.2 4.45 10.6Q8.85 30 15.1 30q2.9 0 5.4-.95.1-.05.2-.05.05-.05.15-.1h.05q.05-.05.15-.1.4-.15.75-.35l.8-.4q.1-.05.15-.1l.1-.05q1.5-.95 2.9-2.3 3.25-3.25 4.1-7.45.05-.05.1-.05l.3-.1q1.15-.55 2.15-1.55 2.25-2.25 2.25-5.45m135.6-6.85V4.1l-.05-.05q-.2-.15-.35-.25-.05-.1-.1-.15-4.2-3.7-9.9-3.65-5.65-.05-9.7 3.55-.2-.05-.35-.1-.4-.1-.8-.1l-.8-.05q-.2-.05-.35 0-.25-.05-.4 0-.25 0-.45.05h-.05q-.25.05-.45.1-2.2.45-3.85 2.1-2.3 2.25-2.3 5.45t2.3 5.45q.95 1 2.15 1.55l.3.1q.85 4.25 4.1 7.5 1.35 1.35 2.9 2.3.05 0 .1.05t.15.1q.35.2.75.4.35.2.75.35l.2.1h.05q.05.05.15.1.1 0 .2.05 2.5.95 5.4.95 6.25 0 10.65-4.4t4.45-10.6q-.05-5.6-3.65-9.75-.15-.15-.25-.3l-.1-.1q-.25-.25-.45-.5-.15-.1-.25-.2z" id="BodHan001__Symbol_2_0_Layer0_0_FILL"/><path fill="#F5D8B8" d="M15.5 7.75q0-3.2-2.25-5.45Q11.6.65 9.45.2 9.15.15 8.9.1 8.65.05 8.4.05q-.15-.05-.35 0Q7.9 0 7.7.05h-.4Q6.6.1 6.05.2 5.9.25 5.7.3q-1.95.45-3.45 2Q0 4.55 0 7.75t2.25 5.45q1.7 1.7 3.95 2.1l1.5.15h.1l.75-.05q1.15-.1 2.15-.5.05-.05.1-.05l.3-.1q1.15-.55 2.15-1.55 2.25-2.25 2.25-5.45M12.45 3q1.95 1.95 1.95 4.75 0 2.75-1.95 4.7-.85.9-1.85 1.4-1 .45-2.05.55l-.75.05h-.1l-1.3-.15q-1.9-.4-3.35-1.85-2-1.95-1.95-4.7Q1.05 4.95 3.05 3q1.45-1.45 3.3-1.8.5-.1 1-.15H7.8q.4 0 .85.1 2.15.25 3.8 1.85m124.3 4.75q-.05-3.2-2.3-5.45-1.5-1.55-3.4-2H131q-.2-.05-.35-.1-.4-.1-.8-.1l-.8-.05q-.2-.05-.35 0-.25-.05-.4 0-.25 0-.45.05h-.05q-.25.05-.45.1-2.2.45-3.85 2.1-2.3 2.25-2.3 5.45t2.3 5.45q.95 1 2.15 1.55l.3.1q1 .4 2.25.55l.75.05h.1l1.5-.15q2.2-.4 3.9-2.1 2.25-2.25 2.3-5.45M133.7 3q1.95 1.95 1.95 4.75 0 2.75-1.95 4.7-1.45 1.45-3.35 1.85l-1.3.15h-.1l-.75-.05q-1.1-.1-2-.55-1.05-.5-1.95-1.4-1.95-1.95-1.9-4.7-.05-2.8 1.9-4.75 1.65-1.6 3.8-1.85h.05q.4-.1.85-.1H129.4q.5.05 1 .15 1.85.35 3.3 1.8z" id="BodHan001__Symbol_1_0_Layer0_0_FILL"/></defs><use xmlns:xlink="http://www.w3.org/1999/xlink" xlink:href="#BodHan001__Symbol_2_0_Layer0_0_FILL" transform="translate(105.05 280.6)" id="BodHan001__col1n"/><use xmlns:xlink="http://www.w3.org/1999/xlink" xlink:href="#BodHan001__Symbol_1_0_Layer0_0_FILL" transform="translate(124.2 283.85)" id="BodHan001__col1d"/></g></g><g transform=""><g transform=""><defs><path d="M217.3 216.5q.081-.214 0-.45-.07-.19-.25-.35-.18-.103-.4-.1h-47.1q-.277.001-.5.2-.185.195-.2.45-.013.31.15.5l4 4.4h.05l2.8 3h-.05l12.8 13.9q.22.226.5.25.266.02.45-.15l27.5-21.3q.206-.137.25-.35z" id="FacMou029__Layer13_0_FILL"/><path fill="#FFFFFF" d="M174.2 217l-.2 3.1.05.1 2.8 3 .1.1h5.9V217h-8.65m17.95 0h-8.5v6.3h8.5V217m9.7 0h-8.9v6.3h8.9V217m.8 6.3h3.8l4.55-3.5-.2-2.8h-8.15v6.3z" id="FacMou029__Symbol_54_0_Layer0_0_FILL"/></defs><use xmlns:xlink="http://www.w3.org/1999/xlink" xlink:href="#FacMou029__Layer13_0_FILL"/><use xmlns:xlink="http://www.w3.org/1999/xlink" xlink:href="#FacMou029__Symbol_54_0_Layer0_0_FILL" id="FacMou029__col1n"/></g></g><g transform=""><g transform=""><defs><path fill="#FFFFFF" d="M105.35 24.4q-1.2-4.7-3.8-8.85-1.7-2.75-4.05-5.3-.15-.2-.3-.35Q88.85.9 77.85.1 66.8-.75 59.55 7q-5.35 5.75-6.3 13.7-1-7.95-6.35-13.7Q39.65-.75 28.65.1 17.6.9 9.25 9.9q-.3.3-.55.65l-.3.3q-5 5.65-7 12.4Q.35 26.8.1 30.65q-.2 2.7.05 5.15.25 3.15 1.25 6 1.65 4.65 5.15 8.4 7.25 7.75 18.25 6.9 11.05-.8 19.4-9.75 7.8-8.4 9.05-19.25 1.2 10.85 9 19.25 8.35 8.95 19.4 9.75 11 .85 18.25-6.9 3.75-4 5.35-9.15.75-2.4 1-5.05.3-2.6.1-5.4-.2-3.2-1-6.2z" id="FacEye002__Symbol_1_0_Layer0_0_FILL"/><path fill="#000000" d="M6.6 2.65q-.3-.65-.8-1.2-1-1-2.4-.95Q1.95.45 1 1.45.05 2.4 0 3.7v.1q0 1.4 1 2.35.75.8 1.75 1 .3 0 .65.05 1.2-.05 2.1-.75l.3-.3q1-.95 1-2.35 0-.65-.2-1.15M42.45 6.7q1.4-.05 2.35-1.05 1-.95 1-2.35 0-.7-.25-1.3-.25-.6-.75-1.05Q43.85 0 42.45 0 41 0 40 .95q-1 1-1 2.35 0 1.2.75 2.1l.25.25q1 1 2.45 1.05z" id="FacEye002__Symbol_5_0_Layer0_0_FILL"/></defs><g id="FacEye002__col1n" transform="translate(139.3 136.2)"><use xmlns:xlink="http://www.w3.org/1999/xlink" xlink:href="#FacEye002__Symbol_1_0_Layer0_0_FILL" id="FacEye002__col1n_FL"/></g><g id="FacEye002__col2n" transform="translate(169.5 142.05)"><use xmlns:xlink="http://www.w3.org/1999/xlink" xlink:href="#FacEye002__Symbol_5_0_Layer0_0_FILL" id="FacEye002__col2n_FL"/></g></g></g><g transform=""><g transform=""><defs><path fill="#A39700" d="M176.3 38.2q-5.2-6.25-11.75-10-.1-.05-.25-.15-6.65-3.65-13.3-7.15-7.05-3.65-13.85-6.7-6.15-2.85-11.7-4.65l.8-8.7q.1-.45.25-.85-.9.4-1.8.9-5.25 2.9-9.5 6.7-1.05-.75-2.1-1.4-5-3.2-10.55-5.05-.05-.05-.1-.05.45 1.3.95 2.6l.45 1.2Q104.4 6.45 105 8q.05.1.1.25.05.05.05.1-7.75-.3-16.25-1.05h-.1q-8.5-.8-14.25 1.85-5.8 2.6-13.75 3.8-7.85 1.15-14.55 4.8-6.8 3.65-12.65 8.8-5.75 4.9-11.45 10.5Q16.5 42.6 11.2 48.5h-.05q-1 2.4-1.8 4.8-2.55 7.2-4.4 14.85-1.8 7.6-3.7 15.3-1.95 7.5-.9 15.5.75 6.45 2.3 12.55 2.7-6.05 4-12.55Q8.1 91.3 9.8 83.35q1.6-7.5 5.6-13.4l.6-.9q4.3-5.9 9.95-11.3 3.15-3 7.3-5.85 4.75-3.3 11.4-5.1 0 .6-.05 1.2-.1 2.2-.55 4.35-.25 1.05-.55 2.05v.1l-.05.15q-.4 1.05-.8 2.15l-.8 1.7q-1.5 3.15-3.4 6l-1.8 2.55q-.3.35-.6.75 0 .05-.05.05l-.6.7q5.75-1.55 10.35-3.8 5.75-2.95 10.05-8.8 2.75-3.7 5.5-7.1 8.6-8.8 10.4-8.35.25.35.45.65.3.45.6.95l1.8 7.85q0 .6-.05 1.15 0 .2-.05.45-.6 5.5-4.15 9 5.15-2.4 9.8-5.95 5.1-3.95 8.7-8.95.55-.85 1.1-1.65.05-.1.15-.15-.2.35-.4.75l5.6-8.55 9.2 9.85q-1.4-1.85-2.6-3.65l1.4 1.9q2.15 3 4.55 6 4.7 5.7 10.7 10.1 3.65 2.7 7.9 4.25-1.45-1.5-2.6-3.2l.1.1q-.3-.45-.6-.95l-2.75-6.35q-.85-3.1-1.4-6.25 0-.15-.05-.3-.4-2.25-.65-4.5l-.25-2.2q-.1-1.15-.15-2.25 5.2.4 12.45 6.4 2.25 2.2 4.25 4.4 5.8 6.2 11.7 10.45 6.2 4.35 13.85 5.95 1.95.4 4 .6.35 0 .75.05h.35q-.55-.4-1.1-.85-4.1-3.35-7.8-7.65-2.75-3.25-4.2-7.15-.75-2.1-1.15-4.4l-.15-.75-.1-.8q0-.1-.05-.25v-.3q-.05-.2-.05-.4-.05-.1-.05-.15-.15-1.5-.35-2.8-.1-.4-.15-.75l-.1-.4q5.95 2.75 10.05 8.85 1.8 2.65 4.1 5.25 1.45 1.55 3.05 3.1 5.8 5.65 11.45 10.95 2.6 2.55 4.5 5.4 2.45 3.7 3.6 7.95 2.15 7.75 3.85 15.5 1.45 7.1 2.2 12.1.7 4.95 1.55 2.05.85-2.9 1.9-9.15 1.05-6.25 1.3-14.05.25-7.75-1.4-15.05-1.2-5.05-2.65-10.05-.65-1.95-1.35-3.9-2-5.65-6.3-10-5.15-5.2-9.7-10.55z" id="HaiSho029__Symbol_150_0_Layer0_0_FILL"/><path fill="#776E00" d="M29.3 46.45q0 .6-.05 1.2-.1 2.2-.55 4.35-.25 1.05-.55 2.05v.1l-.05.15q-.4 1.05-.8 2.15l-.8 1.7q-1.5 3.15-3.4 6l-1.8 2.55q-.3.35-.6.75.972-.77 1.85-1.55 3.8-3.4 5.85-6.9.9-1.45 3.05-4.6.85-1.3 1.95-2.8 7.15-14-3.25-11.15-7 1.6-17.05 10.95Q1.85 61.8 0 68.2v1.4h.05l.6-.9q4.3-5.9 9.95-11.3 3.15-3 7.3-5.85 4.75-3.3 11.4-5.1m16.65 2.05q8.6-8.8 10.4-8.35.25.35.45.65.3.45.6.95l1.8 7.85q0 .6-.05 1.15 0 .2-.05.45 0 .3-.05.6-.6 4.2-3 7.2 3.8-4.3 4.95-7.4.15-.45.25-.85 1.15-3.8 1.75-6.05 1-4 1-6.85 0-1.6-.35-3.3-.2-1-.65-2.9l-5.1 3q-.5.3-1 .75-.1.05-.2.15-8.6 5.75-12.95 15.2 1.15-1.2 2.2-2.25m51.95-3.75q.55 1.45 1.5 3.2.15.25.3.55 2.05 3.5 2.3 4 1.35 2.6 4.25 5.95 1.25 1.4 2.2 2.5l.1.1q-.3-.45-.6-.95l-2.75-6.35q-.85-3.1-1.4-6.25 0-.15-.05-.3-.4-2.25-.65-4.5l-.25-2.2q-.1-1.15-.15-2.25 5.2.4 12.45 6.4 1.4 1.15 2.9 2.55-11.3-13.55-22.4-13.8v3.5q.2 2.6 2.25 7.85m-8.8.8q-1.4-1.85-2.6-3.65Q82 35 79.65 28.15 78 36.25 74.7 43.5q-.2.35-.4.75l5.6-8.55 9.2 9.85M93.75 7.8q0-.45-1.55-2.1-.6-.65-1.35-1.4-1.5-1.5-3.65-3.5-.05-.05-.1-.05.45 1.3.95 2.6l.45 1.2q.55 1.55 1.15 3.1.05.1.1.25.05.05.05.1.3.4 1.15.5 1.15.05 2 .05.8-.05.8-.75m14-1.25q0 1.15.9 1.85 1 .75 1.4 1.15l.9-9.55q-.55.5-.65.6-1.5 1.7-2.1 3.45-.25.65-.35 1.35-.1.55-.1 1.15m55.7 61.05q2.6 2.55 4.5 5.4-2.05-4.95-4.65-7.8-2.6-2.85-5.55-6.25-3-3.4-4.7-6.5-1.75-3.1-2-3.75-.25-.55-2.1-2.95-.35-.45-.7-.95-2.55-3.3-2.75-3.55-1.85-2.2-1.9-2.25-1.15-1.3-2.35-2.15-.85-.6-2.65-1.25-.35-.1-.65-.2-9.45-3.45-8.5 6.35-.05 1.3.9 3.35.95 2.05 2.9 5.55 1.95 3.45 5.2 6.65 3.25 3.15 4.55 4.25 2.85 2.35 5.95 4.15.35.2.75.4h.35q-.55-.4-1.1-.85-4.1-3.35-7.8-7.65-2.75-3.25-4.2-7.15-.75-2.1-1.15-4.4l-.15-.75-.1-.8q0-.1-.05-.25v-.3q-.05-.2-.05-.4-.05-.1-.05-.15-.15-1.5-.35-2.8-.1-.4-.15-.75l-.1-.4q5.95 2.75 10.05 8.85 1.8 2.65 4.1 5.25 1.45 1.55 3.05 3.1 5.8 5.65 11.45 10.95z" id="HaiSho029__Symbol_74_0_Layer0_0_FILL"/></defs><use xmlns:xlink="http://www.w3.org/1999/xlink" xlink:href="#HaiSho029__Symbol_150_0_Layer0_0_FILL" transform="translate(94.15 49.6)" id="HaiSho029__col1n"/><use xmlns:xlink="http://www.w3.org/1999/xlink" xlink:href="#HaiSho029__Symbol_74_0_Layer0_0_FILL" transform="translate(109.5 49.95)" id="HaiSho029__col1d"/></g></g><g transform=""><g transform=""><defs><path fill="#000000" d="M0 11.6Q18.2-5.35 39.5 6.55V5.3Q19.5-7.1 0 9.5v2.1m96.75 0V9.5q-19.5-16.6-39.5-4.2v1.25q21.3-11.9 39.5 5.05z" id="FacBro010__Symbol_10_0_Layer0_0_FILL"/></defs><use xmlns:xlink="http://www.w3.org/1999/xlink" xlink:href="#FacBro010__Symbol_10_0_Layer0_0_FILL" transform="translate(144.15 121.9)" id="FacBro010__col1n"/></g></g><g transform=""><g transform=""><defs><path fill="#000000" d="M89.7 60.3l.65-1.55L83.1 0 .85 4.25 0 4.8l9.35 70.85v3.1l44.95 17.8 80.5-19.95 2.6-1.95v-.9L89.7 60.3z" id="ObjMor003__Symbol_116_0_Layer0_0_FILL"/><path fill="#333333" d="M44.2 75.9l-.1-.05-4.25.9 3.15 1.1 4.05-.9-2.85-1.05m-.2-.65l.1.05 1.9-.45-2.5-.95-4.5.95 2.55.95 1.85-.35q.1-.1.6-.2m1.65 2.65l-.05-.05-4.05.9 2.95 1.15 4-.9-2.85-1.1m.9-2.55l.4-.1-1.9.4L48 76.8l4.4-1-2.85-1.1-3 .65M51 76.8q-.1-.05-.1-.1l-2.5.6-.1.05q-.1.05-.25 0L48 77.3l-1.45.35 2.85 1.15 4.4-.95L51 76.8m8.2-.1l-2.95-1.15-4.4.95 2.9 1.15 4.45-.95m-5.9-2.8q-.55.15-.95.2l-1.8.4 2.65 1q.1.05.15.1l5.25-1.15-2.85-1.05-2.45.5m-1-2.35l2.25-.45h-.05l3.65-.7-2.05-.9-2.1.45q-.45.05-1.75.35l-2.25.45 2.3.8m1.05-3.2h-.1l-2.9.6 1.95.8 3.05-.65q.45-.1.8-.15l2.65-.55-1.85-.85-3.6.8m1.9 3.2l-2.25.4q-.35.1-.75.2L50 72.6l2.55.9 3.9-.75h.15l.95-.3-2.3-.9M57 67l3.2-.6-1.95-.85L51.4 67l1.9.75 2-.4q.45-.05 1.7-.35m-7.95 5.8l-4.55.95 2.45.95 1.95-.4q-.05 0-.05-.05l2.7-.5-2.5-.95m-2.45-1.4q-.4.1-.75.2l-1.85.35 2.15.9 2.2-.45q.35-.1.7-.15l2.2-.45-2.3-.85-2.35.45m2.15-2.7q.3-.1.65-.2l2.95-.55-1.9-.8-6.6 1.35 2.1.75 2.8-.55m-.5 1.85q.15-.1.65-.2l.15.05 2.3-.45-1.95-.85-2.75.55v.05l-2.85.55 2.1.75 2.35-.45m31.8 1.5L77.4 71l-.05-.05-20.1 4.4 2.9 1.1 19.9-4.4m-9.1-1.8l2.45 1.05 5.5-1.25-2.4-1-5.55 1.2m3.2-2.65v.05l-2.3.45 2.25.9 4.25-.85-2.25-.9-1.95.35m3.65-1.3l-1.2-.45q-.5-.2-.85-.35l-4.35.9 2.05.8 4.35-.9m.55-1.9l-2-.8-5.05 1.05 1.9.8 2.15-.45h-.05q.9-.15 3.05-.6m-2-2.3l-.3-.1-5.4 1.05 1.9.75 5.4-1.1-1.35-.55q-.1 0-.15-.05h-.1M61.1 66.15L66.65 65l-1.9-.75-5.55 1.15 1.9.75m3.65 4.8l-2.2-.95-2.8.6q-.35.05-.75.15l-2.8.6 2.3.95 1.8-.4-.15.05 4.6-1m-.05 2.2l-2.55-1.1-5.4 1.15 2.45.9q.25.1.4.15l5.1-1.1m-1.55-1.25l2.45 1 6.85-1.45-2.45-1-6.85 1.45m.35-2.05l2.2.95 3.6-.8q.3-.05.75-.1l3.05-.65-2.25-.9-3.25.6q-.35.1-.75.15l-3.35.75m-1.6-.25v-.05l4.05-.8-2.05-.8-3.45.65v.05l-3.4.7 2 .85 2.85-.6m-.1-3q-.35.05-.75.15l-3.15.65 1.85.8 7.15-1.45-2-.8-3.1.6v.05m5.45-1.9q.1 0 .15.15l.05.05 4.15-.85-1.95-.8-3.9.8 1.5.65m3.2 1.85l-1.9.45q-.3 0-.75.1l-2.95.6 2.05.85 5.55-1.1-2-.9m-4.6-.8l2.05.75 4.35-.85-1.9-.8-4.5.9m-40.7 9.5l3-.6-2.05-.8-3.05.6 2.1.8m12 4.45l3.1 1.1 3.25-.65L40.75 79q-.1 0-.15-.05l-3.45.75m.85-4.6l-4.55.9 2.65.95 4.45-.9L38 75.1m.8 1.85l-5.75 1.25 3.15 1.1 5.8-1.2-3.2-1.15m-3.75.25l-2.6-.95-3.05.55 2.7 1 2.95-.6m-.9-1.85l-2.4-.9-5.65 1.15 2.35.9 3.3-.7q.75-.1 1.05-.2l1.35-.25m3.8-5.65l2.05.75 4.9-1-2.1-.75-4.85 1m2.4 3l-1.9.4 2.2.85L45.2 73l-2.2-.85-1.9.4q-.3.05-.75.15m-2-1.3l2.05.75 1.85-.4.7-.2.05.05 1.9-.35-2.1-.8-4.45.95m-2.8 2.3v.05l-2.8.5 2.4.85 2.15-.4.7-.2h.05l1.65-.35-2.25-.85-1.9.4m-3.15-2.85l2.05.75 1.15-.2h-.2l3.65-.7-2.05-.8-4.6.95m2.75 1.1V72l-2.45.5 2.05.8 1.95-.45q.15 0 .65-.15l.15.05 1.9-.4-2-.8-2.25.4M31.6 73.9h.05q.05-.05.1-.05l2-.4-2-.75-4.65.95 2.05.75 2.45-.5m-9.55.2l5.55-1.15-2.1-.75-5.55 1.15 2.1.75m4.5-2.15l2.1.8v.05l4.8-1-2.05-.8-4.85.95m-17.2-.55v3.1L54.3 92.3l2.3-1.9h.05v-1.3h-.05L9.35 71.4M.85 0L0 .55 9.35 71.4h.15l.7-1.65L.85 0m93.4 67.45q-.05-.05-.1-.15l-4.5 1 2.8 1.05 4.3-.95-2.5-.95m5.4-1.3q-.05 0-.05-.05l-4.55 1 2.65 1.05h.05l4.65-1.05-2.75-.95m-3.1-1.25q-.05.05-.15.05l-1.85.35 2.3.85 4.2-.9-2.3-.8-2.15.4-.05.05m1.6-2.2q-.05 0-.1-.05l-4.05.9 2.45.8 4.1-.85-2.4-.8m-13.9 6.2l-2.3-.95-2.65.55h-.05l-1.8.4 2.4.95 4.4-.95m4.55-.35l-.1-.1-4.95 1.1 2.75 1.1 4.95-1.1-2.65-1m-7.8 3.3l4.55-1-2.45-.95-.1-.05q-.1 0-.15-.1L78.3 70.8l2.7 1.05m2.8-6.8l-2-.8-5.1 1.05h.1l2 .8 5-1.05m.6 1.85l-2.25-.9-4.2.85H78l-.95.15 2.25.95 5.1-1.05m-1.05-3.5l-2.05-.8-3.95.85 2 .75 4-.8m6.9 4.2l-2.3-.95-2.4.55h-.05q-.1.05-.15.05l-2.45.5 2.35.9 5-1.05m-.95-3.65l-2.1-.8-4.45.9 2 .8 4.55-.9m-.9.7l2.35.85 4.6-.95-2.4-.8-1 .2.1-.05-3.65.75m2.45 1.4q-.1.05-.2.05l-1.7.4 2.2.9 4.7-1-2.3-.9-2.65.55h-.05m-3.6.2q.35-.05.75-.15l1.7-.35-2.35-.85-2.45.5-.05.05h-.1l-1.6.3 2.2.9 1.9-.4m2.9-3.7h-.05q-.1.05-.2.05l-1.7.35 2.05.75 4.15-.8-2.15-.8-2.1.45M86.7 61.5l-1.75.35v.05l-2.65.5 2.1.75 2.1-.4v-.05l2.35-.45-2.15-.75m3.9-2.45l-3.5.7 2.05.7 3.6-.75-2.15-.65m-8.35 1.65l1.95.75 3.85-.8-2-.7-3.8.75m.95.95l-1.95-.7-4.2.8 1.85.8 4.3-.9m16.55-1.05l-1.5.3 2.2.7 1.7-.35-2.35-.65h-.05m-.35 1.25l-2.3-.75-3.8.85 2.1.7 4-.8m-5.7-.6l-2.2-.7-1.6.3q-.3.05-.8.2l-1.35.25 2.2.75 1.15-.25.4-.1 2.2-.45m.15-1.75l1.2-.25-2.2-.65-1.2.2 2.2.7m.8 1.55q.05 0 .1.05l3.9-.85-2.4-.65-3.65.7 2.05.75m15.95 2.65l-4.55 1 2.9.95 4.75-1.05-3.1-.9m-8.55 1.3l4.3-.95-2.35-.75-4.2.9 2.25.8m-.65-1.85q.05.05.1.15l1.75-.35q.4-.1.75-.2h.05l1.85-.4-2.6-.75-4.2.85 2.3.7m3.7 1.85q-.05 0-.1-.05l-4.4.95 2.85 1 4.45-1-2.8-.9m4.4-1.6l-2.45-.7-1.95.4 2.25.75h.05l2.1-.45z" id="ObjMor003__Symbol_97_0_Layer0_0_FILL"/><path fill="#252525" d="M.7 15.25L0 16.9l6.95-1.35v-1.5L.7 15.25m79.5-13.7L80.85 0 74.2 1.25v1.4l6-1.1M54.75 6.4V4.95l-28.35 5.4v1.5L54.75 6.4m73.15 9.5V15L47.15 34.6v1.3l80.75-20z" id="ObjMor003__Symbol_64_0_Layer0_0_FILL"/><path fill="#006AC9" d="M78.25 0L0 4.55 7.5 59.7q41-3.85 76.7-12.15L78.25 0m-6.4 3.9l.3 2.15L11.6 11.2l-.35-2.45 60.6-4.85z" id="ObjMor003__Symbol_22_0_Layer0_0_FILL"/><path fill="#00284D" d="M77 46.2l-.3-2.55L0 55.8l.45 3L77 46.2M64.65 2.15L64.35 0 3.75 4.85 4.1 7.3l60.55-5.15m4.5 3.95l-.3-2.15L8.2 8.85l.4 2.45h.05l60.5-5.2z" id="ObjMor003__Symbol_1_0_Layer0_0_FILL"/><path fill="#FFF" fill-opacity="0.502" d="M120.95 222.6l-.3-2.1-60.55 5.15 6.15 39.3 3.65-.55-5.25-34.75h-.05l-.4-2.45 56.75-4.6z" id="ObjMor003__Layer4_0_MEMBER_0_FILL"/><g id="ObjMor003__Layer4_0_FILL"><path fill="#FFF" d="M59.4 276.05q.1-.15.1-.55 0-1-.95-.95-1.05.05-1.05.95 0 .9 1.05.9.65 0 .85-.35m70.55-16.15l-4.8-35.45-60.5 5.2 5.25 34.75h.15l.65 4.55 59.25-9.05z"/><path fill="#43FFBB" d="M54.15 243.95q0 .15.1.4.15.3.6.3.05 0 .8-.15t1.95-.25q.7 0 .7-.65 0-.6-1-.7v-.25q0-.2-.1-.5-.15-.25-.35-.35-.25-.15-.5-.45-.15-.15-.6-.2-.45.05-.9.7-.35.6-.35.9 0 .3.15.5-.5.3-.5.7z"/><path d="M56.8 238.65q-.15-.1-.95-.45v-.05q.4-.3.4-.65 0-.85-1.05-.65-1.05.2-1.05 1.3 0 .55.4 1 .55.6 1.8.6.35 0 .55-.25.15-.25.15-.45 0-.25-.25-.4z"/><path fill="#020666" d="M54.25 230.45q-.4 0-.8.3-.35.25-.35.6 0 .3.15.45.15.3.6.35 0 .4.05.55.1.4.5.6-.65-.1-.95.25-.1.25-.1.45 0 .7 1 .7.9 0 1.35-.7.25-.45.25-.85 0-.25-.3-.65l-.3-.45q0-1.6-1.1-1.6z"/><path fill="#72009C" d="M52.9 225.85q-.95 0-.95 1.55 0 .55.1.8.35.65 1.65.65.9 0 1.15-.75.1-.25.1-.95 0-.5-.35-.85-.55-.45-1.7-.45z"/><path fill="#54CBFF" d="M52.9 220.35q-1.15-.05-1.15 1.1 0 .4.05.5.1.25.4.55h-.1q-1.05 0-1.05.7 0 .05.1.35.25.4.8.4 1.7 0 2.25-.45.3-.2.3-.8 0-.3-.1-.45-.05-.25-.55-.65.25-.15.25-.45 0-.3-.4-.6-.3-.15-.8-.2z"/></g></defs><use xmlns:xlink="http://www.w3.org/1999/xlink" xlink:href="#ObjMor003__Symbol_116_0_Layer0_0_FILL" transform="translate(45.2 212.6)" id="ObjMor003__col1n"/><use xmlns:xlink="http://www.w3.org/1999/xlink" xlink:href="#ObjMor003__Symbol_97_0_Layer0_0_FILL" transform="translate(45.2 216.85)" id="ObjMor003__col1l"/><use xmlns:xlink="http://www.w3.org/1999/xlink" xlink:href="#ObjMor003__Symbol_64_0_Layer0_0_FILL" transform="translate(54.7 271.35)" id="ObjMor003__col1d"/><use xmlns:xlink="http://www.w3.org/1999/xlink" xlink:href="#ObjMor003__Symbol_22_0_Layer0_0_FILL" transform="translate(48.5 214.45)" id="ObjMor003__col2n"/><use xmlns:xlink="http://www.w3.org/1999/xlink" xlink:href="#ObjMor003__Symbol_1_0_Layer0_0_FILL" transform="translate(56 218.35)" id="ObjMor003__col2s"/><use xmlns:xlink="http://www.w3.org/1999/xlink" xlink:href="#ObjMor003__Layer4_0_FILL"/><use xmlns:xlink="http://www.w3.org/1999/xlink" xlink:href="#ObjMor003__Layer4_0_MEMBER_0_FILL"/></g></g><g transform=""><g transform=""><defs><path fill="#EEEEEE" d="M51.7 47.05q5.15-6.3 6.1-14.3.05-.65.1-1.35.05-.5.05-1 .05-.7.05-1.4 0-6.6-2.55-12.1-2.1-4.55-5.95-8.4-4.15-4.15-9.15-6.3-.25-.1-.45-.15Q34.85 0 29 0q-5.4 0-10.1 1.7-5.75 2.1-10.4 6.8-2.95 2.9-4.85 6.3Q0 21.15 0 29q0 3.4.7 6.55.05.2.1.45 1.8 7.6 7.7 13.5 1.8 1.8 3.75 3.2 6.85 4.95 15.65 5.25.55.05 1.1.05 10.95 0 19-7.1l1.5-1.4q1.2-1.2 2.2-2.45z" id="ObjToy003__Symbol_97_0_Layer0_0_FILL"/><path fill="#000000" d="M54.75 15.2l-1 1.05q-2.05-1.75-6-3.1-2.5-4.45-8.1-9V.5Q39.4.4 39.2.35V4q-6.35.6-10.85 2.8-4.05-1.75-9.8-2.8.35-2-.35-4-5.75 2.1-10.4 6.8-2.95 2.9-4.85 6.3 2.2-.85 5.15-.05l1.25 10.7Q5.3 28.85 5.45 34q-2.1.35-5.45-.15.05.2.1.45 3.3.5 5.45.1 2.8 5.2 8 9.15-.25 4.85.65 7.45h-2.65q6.85 4.95 15.65 5.25v-.6q6.3-1 10.2-4.3 6.2-.4 9.9-2.15l1.5-1.4q1.2-1.2 2.2-2.45 1.2-2.95 1.25-7.3 2.4-2.1 4.85-7 .05-.65.1-1.35-2.6 5.7-5.2 7.95l-7.3-3.4q-.05-6.2-2.45-12.4l5.45-8.25q3.95 1.3 5.85 3.1 2.75 6.5 3.7 12 .05-.7.05-1.4 0-6.6-2.55-12.1M41.8 22q2.45 6.15 2.45 12.3-3.1 4.3-8.6 8.15-6.95-.75-11.85-3.9-2.1-5.85-3.2-12l9.35-8.7q7.1 1.7 11.85 4.15M28.15 7.2l1.5 10.35-9.35 8.7L9.75 23.6 8.5 12.85v-.1q3.4-3.8 9.95-8.35 5.7 1.05 9.7 2.8M23.6 38.95q4.95 3.2 11.95 3.95L37.1 51q-3.9 3.25-10.1 4.25l-12.3-4.2q-.95-2.55-.7-7.45l9.6-4.65z" id="ObjToy003__Symbol_18_0_Layer0_0_FILL"/></defs><use xmlns:xlink="http://www.w3.org/1999/xlink" xlink:href="#ObjToy003__Symbol_97_0_Layer0_0_FILL" transform="translate(270 312.05)" id="ObjToy003__col1n"/><use xmlns:xlink="http://www.w3.org/1999/xlink" xlink:href="#ObjToy003__Symbol_18_0_Layer0_0_FILL" transform="translate(270.7 313.75)" id="ObjToy003__col2n"/></g></g></svg>